<svg width="48" height="28" viewBox="0 0 48 28" fill="none" xmlns="http://www.w3.org/2000/svg">
<path fill-rule="evenodd" clip-rule="evenodd" d="M23.1563 13.0871C23.4031 13.1015 23.6314 13.2221 23.7818 13.4174C24.6687 14.5689 25.9715 15.5621 27.3102 16.3485C28.6431 17.1314 29.9586 17.6782 30.8167 17.9564C32.4843 18.4969 35.304 18.6249 38.388 18.4509C41.4402 18.2786 44.623 17.8189 46.9495 17.2605C47.2547 17.1873 47.5757 17.2873 47.7845 17.5208C47.9933 17.7542 48.0561 18.0831 47.9477 18.3765C47.391 19.8839 46.4141 21.8424 45.0327 23.5684C43.6562 25.2881 41.8185 26.85 39.5256 27.4206C37.7984 27.8505 35.8039 27.9937 34.0807 27.9998C32.3609 28.0059 30.8432 27.8754 30.0554 27.7278C29.6531 27.6525 29.3617 27.3028 29.3617 26.8953V23.0828C29.3617 22.9634 29.3615 22.8636 29.3605 22.7767C28.9798 22.7277 28.1626 22.5862 27.3341 22.4331C25.5191 22.0979 23.8267 21.2012 22.4699 20.2542C21.1094 19.3046 20.0308 18.2652 19.4384 17.5759C19.1525 17.2432 19.1683 16.7483 19.475 16.4344L22.4963 13.3421L22.5294 13.3101C22.6988 13.1545 22.925 13.0735 23.1563 13.0871ZM21.2589 17.0389C21.7979 17.5787 22.5525 18.2423 23.4471 18.8668C24.6939 19.737 26.1575 20.4924 27.6446 20.7672C28.501 20.9254 29.284 21.0597 29.5949 21.0984C29.7462 21.1172 29.9603 21.1411 30.1397 21.1917C30.3563 21.2528 30.644 21.3837 30.8416 21.6946C31.0054 21.9524 31.0371 22.2335 31.0501 22.4065C31.0644 22.5957 31.0638 22.8319 31.0638 23.0828V26.1607C31.8056 26.2434 32.8727 26.3096 34.0746 26.3054C35.7294 26.2995 37.5719 26.1603 39.1127 25.7768C40.9049 25.3308 42.4502 24.0757 43.7014 22.5125C44.5384 21.4668 45.217 20.3156 45.7262 19.2564C43.5492 19.6766 40.971 20.0023 38.4844 20.1427C35.3769 20.3181 32.2816 20.2132 30.2897 19.5676C29.3181 19.2526 27.8888 18.6557 26.4452 17.8078C25.2726 17.119 24.0549 16.2439 23.0648 15.1905L21.2589 17.0389Z" fill="black"/>
<path fill-rule="evenodd" clip-rule="evenodd" d="M23.1563 13.0871C23.4031 13.1015 23.6314 13.2221 23.7818 13.4174C24.6687 14.5689 25.9715 15.5621 27.3102 16.3485C28.6431 17.1314 29.9586 17.6782 30.8167 17.9564C32.4843 18.4969 35.304 18.6249 38.388 18.4509C41.4402 18.2786 44.623 17.8189 46.9495 17.2605C47.2547 17.1873 47.5757 17.2873 47.7845 17.5208C47.9933 17.7542 48.0561 18.0831 47.9477 18.3765C47.391 19.8839 46.4141 21.8424 45.0327 23.5684C43.6562 25.2881 41.8185 26.85 39.5256 27.4206C37.7984 27.8505 35.8039 27.9937 34.0807 27.9998C32.3609 28.0059 30.8432 27.8754 30.0554 27.7278C29.6531 27.6525 29.3617 27.3028 29.3617 26.8953V23.0828C29.3617 22.9634 29.3615 22.8636 29.3605 22.7767C28.9798 22.7277 28.1626 22.5862 27.3341 22.4331C25.5191 22.0979 23.8267 21.2012 22.4699 20.2542C21.1094 19.3046 20.0308 18.2652 19.4384 17.5759C19.1525 17.2432 19.1683 16.7483 19.475 16.4344L22.4963 13.3421L22.5294 13.3101C22.6988 13.1545 22.925 13.0735 23.1563 13.0871ZM21.2589 17.0389C21.7979 17.5787 22.5525 18.2423 23.4471 18.8668C24.6939 19.737 26.1575 20.4924 27.6446 20.7672C28.501 20.9254 29.284 21.0597 29.5949 21.0984C29.7462 21.1172 29.9603 21.1411 30.1397 21.1917C30.3563 21.2528 30.644 21.3837 30.8416 21.6946C31.0054 21.9524 31.0371 22.2335 31.0501 22.4065C31.0644 22.5957 31.0638 22.8319 31.0638 23.0828V26.1607C31.8056 26.2434 32.8727 26.3096 34.0746 26.3054C35.7294 26.2995 37.5719 26.1603 39.1127 25.7768C40.9049 25.3308 42.4502 24.0757 43.7014 22.5125C44.5384 21.4668 45.217 20.3156 45.7262 19.2564C43.5492 19.6766 40.971 20.0023 38.4844 20.1427C35.3769 20.3181 32.2816 20.2132 30.2897 19.5676C29.3181 19.2526 27.8888 18.6557 26.4452 17.8078C25.2726 17.119 24.0549 16.2439 23.0648 15.1905L21.2589 17.0389Z" fill="black" fill-opacity="0.2"/>
<path d="M31.5319 0.716202C34.2128 -0.131005 38.9787 -0.25809 44.5531 0.504398C45.7871 0.716199 45.7872 0.716204 45.8298 0.970368C45.8723 1.22453 45.8297 1.43634 44.5531 1.39398C43.5318 1.36009 38.9644 1.37986 36.8084 1.39398C36.6524 1.43636 36.3489 1.61429 36.3829 1.98703C36.4255 2.45298 36.468 2.79187 36.8084 2.83425C37.1488 2.87661 44.6379 3.00369 45.234 3.04605C45.8297 3.08841 45.8298 3.30022 45.8298 3.51202C45.8298 3.72383 45.5744 3.89327 45.234 3.89327H37.1063C36.6382 3.89328 36.3829 4.06273 36.3829 4.52869C36.3829 4.99464 36.5106 5.24881 36.8084 5.29118C37.1063 5.33354 44.5526 5.46062 44.8935 5.50299C45.234 5.54535 45.8298 5.46063 45.8298 5.84188C45.8298 6.22312 45.7446 6.26549 45.234 6.26549C44.723 6.26549 37.8297 6.43493 37.1063 6.43493C36.3829 6.43495 36.3829 7.07034 36.3829 7.23979C36.3829 7.40923 36.3829 7.91754 37.1063 7.91756H45.234C45.4325 7.93168 45.8298 8.0277 45.8298 8.29881C45.8298 8.6377 45.5744 8.6377 45.234 8.68006C44.8929 8.72252 35.4153 10.0607 31.7715 8.65027C30.5926 8.1997 29.9575 7.71989 29.7872 7.53631C28.4681 7.91756 26.383 8.42591 23.8298 10.8828C21.2766 13.3398 17.8723 17.7453 14.2552 20.6682C13.2765 21.346 11.5137 22.443 9.70213 23.0828C7.53193 23.8492 4.9009 23.9223 3.82979 23.5526C2.4681 23.0827 2.12766 22.6395 2.12766 21.4346C2.12767 20.6681 2.25538 17.5798 4.42553 18.0881C7.27661 18.7559 8.59854 18.2152 10.0227 17.495C11.4468 16.7749 12.4681 15.9068 14 14.4835C15.9149 12.7043 19.1064 8.087 25.1064 4.99466C27.1064 4.02037 28.0426 3.72383 28.766 3.72383C28.7943 3.00369 29.3872 1.39398 31.5319 0.716202Z" fill="black"/>
<path d="M31.5319 0.716202C34.2128 -0.131005 38.9787 -0.25809 44.5531 0.504398C45.7871 0.716199 45.7872 0.716204 45.8298 0.970368C45.8723 1.22453 45.8297 1.43634 44.5531 1.39398C43.5318 1.36009 38.9644 1.37986 36.8084 1.39398C36.6524 1.43636 36.3489 1.61429 36.3829 1.98703C36.4255 2.45298 36.468 2.79187 36.8084 2.83425C37.1488 2.87661 44.6379 3.00369 45.234 3.04605C45.8297 3.08841 45.8298 3.30022 45.8298 3.51202C45.8298 3.72383 45.5744 3.89327 45.234 3.89327H37.1063C36.6382 3.89328 36.3829 4.06273 36.3829 4.52869C36.3829 4.99464 36.5106 5.24881 36.8084 5.29118C37.1063 5.33354 44.5526 5.46062 44.8935 5.50299C45.234 5.54535 45.8298 5.46063 45.8298 5.84188C45.8298 6.22312 45.7446 6.26549 45.234 6.26549C44.723 6.26549 37.8297 6.43493 37.1063 6.43493C36.3829 6.43495 36.3829 7.07034 36.3829 7.23979C36.3829 7.40923 36.3829 7.91754 37.1063 7.91756H45.234C45.4325 7.93168 45.8298 8.0277 45.8298 8.29881C45.8298 8.6377 45.5744 8.6377 45.234 8.68006C44.8929 8.72252 35.4153 10.0607 31.7715 8.65027C30.5926 8.1997 29.9575 7.71989 29.7872 7.53631C28.4681 7.91756 26.383 8.42591 23.8298 10.8828C21.2766 13.3398 17.8723 17.7453 14.2552 20.6682C13.2765 21.346 11.5137 22.443 9.70213 23.0828C7.53193 23.8492 4.9009 23.9223 3.82979 23.5526C2.4681 23.0827 2.12766 22.6395 2.12766 21.4346C2.12767 20.6681 2.25538 17.5798 4.42553 18.0881C7.27661 18.7559 8.59854 18.2152 10.0227 17.495C11.4468 16.7749 12.4681 15.9068 14 14.4835C15.9149 12.7043 19.1064 8.087 25.1064 4.99466C27.1064 4.02037 28.0426 3.72383 28.766 3.72383C28.7943 3.00369 29.3872 1.39398 31.5319 0.716202Z" fill="black" fill-opacity="0.2"/>
<path fill-rule="evenodd" clip-rule="evenodd" d="M8.38298 2.28356C10.5808 2.28356 12.6766 3.06072 14.4407 4.08878C16.2071 5.11822 17.6934 6.42943 18.687 7.57594C18.9891 7.92453 18.9563 8.44948 18.6131 8.75808C17.2923 9.94572 17.3324 9.90548 15.2914 11.7257C14.9635 12.0181 14.4657 12.0133 14.1435 11.7147C12.3933 10.0926 10.8204 9.3828 9.58228 9.0853C8.34212 8.78731 7.38835 8.89061 6.84375 8.96806C6.04464 9.08171 5.62223 9.15624 5.26039 9.25375C4.90123 9.35054 4.58171 9.47507 3.98072 9.71881C3.93809 9.7361 3.89411 9.74997 3.84924 9.76018C3.52043 9.835 3.00756 9.88882 2.49992 9.79162C1.99091 9.69416 1.31083 9.39944 1.03 8.63067C0.951083 8.41462 0.853893 8.17641 0.74385 7.90457C0.63632 7.63894 0.518941 7.34701 0.411652 7.04908C0.20288 6.46934 2.64359e-06 5.78301 0 5.12174C1.64285e-06 4.2551 0.600736 3.7208 1.08062 3.4364C1.57337 3.14438 2.14462 2.98291 2.54097 2.8963C5.29851 2.29375 6.25643 2.28356 8.38298 2.28356ZM8.38298 3.97799C6.3392 3.97799 5.50997 3.98233 2.90583 4.55136C2.5788 4.62282 2.21385 4.73671 1.9513 4.89231C1.82331 4.96816 1.75499 5.03345 1.7234 5.07549C1.69983 5.10687 1.70213 5.11575 1.70213 5.12174C1.70213 5.4771 1.81841 5.93449 2.01388 6.47729C2.10871 6.74063 2.21475 7.00479 2.32264 7.27131C2.42801 7.53161 2.53829 7.80177 2.62957 8.05168C2.63162 8.05731 2.62965 8.057 2.6422 8.06558C2.6647 8.08094 2.71928 8.10816 2.82139 8.12771C3.01285 8.16437 3.24457 8.15047 3.4114 8.1201C3.96341 7.89656 4.36076 7.74072 4.81566 7.61814C5.28766 7.49095 5.80143 7.40468 6.60306 7.29067C7.24995 7.19867 8.44518 7.069 9.98163 7.43819C11.3662 7.77088 12.9878 8.49876 14.7211 9.95957C15.884 8.92303 16.1873 8.65385 16.8336 8.07402C15.9867 7.21612 14.8654 6.29977 13.5807 5.55106C11.983 4.61992 10.1851 3.97799 8.38298 3.97799Z" fill="black"/>
<path fill-rule="evenodd" clip-rule="evenodd" d="M8.38298 2.28356C10.5808 2.28356 12.6766 3.06072 14.4407 4.08878C16.2071 5.11822 17.6934 6.42943 18.687 7.57594C18.9891 7.92453 18.9563 8.44948 18.6131 8.75808C17.2923 9.94572 17.3324 9.90548 15.2914 11.7257C14.9635 12.0181 14.4657 12.0133 14.1435 11.7147C12.3933 10.0926 10.8204 9.3828 9.58228 9.0853C8.34212 8.78731 7.38835 8.89061 6.84375 8.96806C6.04464 9.08171 5.62223 9.15624 5.26039 9.25375C4.90123 9.35054 4.58171 9.47507 3.98072 9.71881C3.93809 9.7361 3.89411 9.74997 3.84924 9.76018C3.52043 9.835 3.00756 9.88882 2.49992 9.79162C1.99091 9.69416 1.31083 9.39944 1.03 8.63067C0.951083 8.41462 0.853893 8.17641 0.74385 7.90457C0.63632 7.63894 0.518941 7.34701 0.411652 7.04908C0.20288 6.46934 2.64359e-06 5.78301 0 5.12174C1.64285e-06 4.2551 0.600736 3.7208 1.08062 3.4364C1.57337 3.14438 2.14462 2.98291 2.54097 2.8963C5.29851 2.29375 6.25643 2.28356 8.38298 2.28356ZM8.38298 3.97799C6.3392 3.97799 5.50997 3.98233 2.90583 4.55136C2.5788 4.62282 2.21385 4.73671 1.9513 4.89231C1.82331 4.96816 1.75499 5.03345 1.7234 5.07549C1.69983 5.10687 1.70213 5.11575 1.70213 5.12174C1.70213 5.4771 1.81841 5.93449 2.01388 6.47729C2.10871 6.74063 2.21475 7.00479 2.32264 7.27131C2.42801 7.53161 2.53829 7.80177 2.62957 8.05168C2.63162 8.05731 2.62965 8.057 2.6422 8.06558C2.6647 8.08094 2.71928 8.10816 2.82139 8.12771C3.01285 8.16437 3.24457 8.15047 3.4114 8.1201C3.96341 7.89656 4.36076 7.74072 4.81566 7.61814C5.28766 7.49095 5.80143 7.40468 6.60306 7.29067C7.24995 7.19867 8.44518 7.069 9.98163 7.43819C11.3662 7.77088 12.9878 8.49876 14.7211 9.95957C15.884 8.92303 16.1873 8.65385 16.8336 8.07402C15.9867 7.21612 14.8654 6.29977 13.5807 5.55106C11.983 4.61992 10.1851 3.97799 8.38298 3.97799Z" fill="black" fill-opacity="0.2"/>
</svg>
